<svg xmlns="http://www.w3.org/2000/svg" viewBox="0 0 142.18 153.61"><defs><style>.cls-1{fill:#3cb3dc;}</style></defs><g id="Layer_2" data-name="Layer 2"><g id="Layer_1-2" data-name="Layer 1"><path class="cls-1" d="M28.72,130.26a23,23,0,0,0-3-2.09c-7.93-3.86-8.44-8.59-1.44-13.9,1.38-1,3.56-3.26,4-3a22.86,22.86,0,0,1,5.34,5.58c.51.72-.22,2.31-.38,3.51-1-.37-1.93-.79-2.92-1.09-1.41-.42-2.94-1.24-4.22-1-.92.2-2.3,2.12-2.08,2.89.31,1.13,1.89,1.89,2.87,2.86,2,2,5.58,4.1,5.44,5.92-.21,2.74-2.89,5.42-4.86,7.86-1,1.29-3.59,3.15-4.12,2.79a18.42,18.42,0,0,1-4.82-5.37c-.53-.85,0-2.38.09-3.61,1.11.34,2.23.63,3.32,1,1.26.45,2.53,1.44,3.71,1.33,1.42-.13,2.76-1.18,4.14-1.83Z"/><path class="cls-1" d="M75.77.07q30.48,0,61,0c5.82,0,6,.23,5,6-2.49,14.26-5.21,28.49-7.37,42.8-.57,3.81.33,7.92,1,11.83,1.35,8.37,2.75,16.76,4.55,25a71.06,71.06,0,0,1,.23,30.62c-2.33,10.73-4.18,21.57-5.82,32.42-.6,3.95-2.34,4.79-5.93,4.78q-61.71-.12-123.42,0C.52,153.62-.57,152.3.25,148,3,133.79,5.61,119.54,7.71,105.23c.63-4.3-.32-8.9-1-13.29C5.38,83.56,4,75.16,2.15,66.89a70.25,70.25,0,0,1,.12-30.61c2.22-10.41,4-20.93,5.61-31.45C8.47,1.05,10.12,0,13.8,0,34.46.15,55.11.07,75.77.07ZM4.46,49.33H129.81c2.66-15.07,5.26-29.75,7.91-44.79H12.37C9.73,19.49,7.13,34.18,4.46,49.33Zm125.31,99.85c2.67-15.13,5.28-29.95,7.93-45H12.34c-2.65,15.13-5.24,29.92-7.89,45Zm0-94.77H4.43c2.45,13.71,5,26.91,7.08,40.19.62,3.94,2,5,6,5,38.3-.16,76.59-.1,114.88-.1h5.42C135,84,132.42,69.18,129.8,54.41Z"/><path class="cls-1" d="M44,22.34c6.81,0,13.63-.11,20.44.09,1.29,0,2.55,1.28,3.83,2-1.26.73-2.51,2.07-3.77,2.08q-20.68.24-41.38,0c-1.3,0-2.58-1.32-3.87-2,1.27-.7,2.52-2,3.81-2,7-.19,14-.09,20.94-.09Z"/><path class="cls-1" d="M34,17.85c-3.48,0-7,.16-10.44-.09-1-.06-1.87-1.27-2.8-2,.9-.76,1.79-2.16,2.71-2.18q10.94-.27,21.88,0c.94,0,1.86,1.34,2.79,2.06-.9.73-1.76,2-2.7,2.07C41.67,18,37.85,17.85,34,17.85Z"/><path class="cls-1" d="M102,119.24c-5.5,0-11,.12-16.49-.09-1.17,0-2.3-1.24-3.44-1.9,1.1-.69,2.2-2,3.31-2q16.74-.23,33.49,0c1.07,0,2.13,1.35,3.19,2.08-1,.62-2,1.75-3.07,1.79C113.32,119.34,107.65,119.24,102,119.24Z"/><path class="cls-1" d="M93.42,123.68a86.26,86.26,0,0,1,9,.11c1.15.13,2.17,1.45,3.26,2.22-1,.65-2,1.83-3.08,1.86-6.32.17-12.64.19-19,0-1.08,0-2.12-1.41-3.18-2.17,1.17-.67,2.3-1.81,3.52-1.92C87.09,123.5,90.26,123.68,93.42,123.68Z"/><path class="cls-1" d="M64,72.08c13.63,0,27.26-.06,40.89.1,1.43,0,2.84,1.32,4.25,2-1.42.74-2.85,2.12-4.28,2.13q-41.14.18-82.28,0c-1.45,0-2.9-1.39-4.34-2.13,1.45-.71,2.9-2,4.37-2C36.43,72,50.22,72.07,64,72.08Z"/><path class="cls-1" d="M62.43,84.88c-12.64,0-25.28.07-37.92-.08-1.53,0-3.05-1.14-4.58-1.75,1.57-.75,3.14-2.13,4.72-2.14,24.94-.13,49.88-.09,74.83-.09a6.06,6.06,0,0,1,2.46.11,12.1,12.1,0,0,1,2.35,2c-.82.63-1.59,1.72-2.46,1.81a74.54,74.54,0,0,1-7.48.11Q78.39,84.9,62.43,84.88Z"/><path class="cls-1" d="M48,67.64c-9.13,0-18.26.08-27.39-.09-1.26,0-2.49-1.29-3.74-2,1.27-.71,2.54-2,3.81-2q27.64-.2,55.29,0c1.27,0,2.53,1.36,3.8,2.08-1.29.68-2.57,1.93-3.87,2C66.56,67.73,57.26,67.65,48,67.64Z"/></g></g></svg>