<svg xmlns="http://www.w3.org/2000/svg" viewBox="0 0 203.38 203.56"><defs><style>.cls-1{fill:#3cb3dc;stroke:#3cb3dc;}</style></defs><g id="Layer_2" data-name="Layer 2"><g id="Layer_1-2" data-name="Layer 1"><path class="cls-1" d="M117.65,194.14h30.58c1.84,0,3.93-.51,5.43.2,1.66.78,3.84,2.69,3.85,4.13s-2.18,3.17-3.78,4.23c-.94.63-2.59.23-3.92.23H51.34c-3.19,0-5.87-1-5.68-4.7.18-3.35,2.72-4.13,5.73-4.11,11.3,0,22.61,0,34.29,0V140H31.75c-1.33,0-3,.48-3.92-.14-1.8-1.24-3.17-3.1-4.72-4.69,1.61-1.34,3.13-3.68,4.84-3.83,5.59-.49,11.25-.18,17.21-.18V117.4h-27c-2.33,0-4.66,0-7,0C3.69,117.3.59,114.28.54,106.69c-.08-12.66,0-25.32,0-38,0-13,0-26,0-39,0-8.16,3-11.07,11.24-11.12,7.28,0,14.57,0,22.12,0V9.35c-2.16,0-4.58.54-6.58-.16-1.67-.59-3.87-2.58-3.93-4S25.6,1,27,.94a223.88,223.88,0,0,1,23.46,0C51.76,1,54,3.76,53.94,5.17s-2.26,3.39-3.93,4c-1.85.7-4.18.16-6.58.16v8.8H96.87V9.36c-2.24,0-4.53.52-6.4-.16-1.69-.61-4.2-2.73-4-3.82.27-1.73,2.4-4.4,3.88-4.49A187,187,0,0,1,112.78.84c1.57.1,3,2.74,4.48,4.21-1.5,1.43-2.78,3.4-4.56,4.16s-3.88.15-6.19.15v8.91h53.33V9.38c-1.88,0-4.06.56-5.67-.15-1.93-.84-3.37-2.78-5-4.25,1.5-1.44,2.93-4,4.51-4.14a181,181,0,0,1,22,0c1.63.1,3.12,2.64,4.67,4.06-1.63,1.49-3,3.43-5,4.35-1.48.71-3.57.14-5.76.14v9.21c7,0,14.13,0,21.22,0,9.31,0,12,2.68,12.05,11.83q0,37.74,0,75.48c0,8.56-2.92,11.47-11.34,11.49-11,0-21.93,0-33.26,0v13.76h14.9c3.23,0,7-.27,7,4.24,0,4.72-3.85,4.62-7.28,4.62H117.65Zm76.14-85.9V27.66H9.67v80.58ZM108,193.94V117.75H95.41v76.19Zm-53.5-63.15H85.69v-13H54.47Zm63.18-13.15v13.21h31.14V117.64Z"/><path class="cls-1" d="M137.7,57.33c2.65-4.54,4.86-8.44,7.18-12.27,3.24-5.37,6.49-5.5,9.59-.24q12.27,20.87,24.34,41.84c3,5.19,1.19,8.39-4.81,8.41q-36.24.12-72.46,0c-6.27,0-8-3.24-4.82-8.75q12-20.75,24.1-41.4c3.12-5.32,6.35-5.26,9.59,0C132.75,48.77,135,52.66,137.7,57.33ZM107.4,85.75h36.48c-6.22-10.64-12.06-20.65-18.29-31.32Zm60.27-.57c-5.83-10-11.7-20.11-17.67-30.36-6.87,9.07-7.78,11-5.35,14.54C150.19,77.38,151.73,91,167.67,85.18Z"/><path class="cls-1" d="M52.18,72.37c-7.66,0-15.31,0-23,0-3.09,0-6-.48-6-4.26s2.67-4.6,5.79-4.6q23.22,0,46.44,0c3.13,0,5.87.85,5.78,4.61s-2.94,4.28-6,4.26C67.49,72.34,59.84,72.37,52.18,72.37Z"/><path class="cls-1" d="M52,95.1c-7.33,0-14.66,0-22,0-3.38,0-6.78-.37-6.8-4.68,0-4.14,3.26-4.33,6.45-4.32q22.5.06,45,0c3.16,0,6.47.06,6.53,4.23.07,4.37-3.3,4.76-6.68,4.75Z"/><path class="cls-1" d="M52.36,50.07c-7.83,0-15.66.1-23.49,0-4.45-.08-7.13-3.14-5.35-6.12a6.57,6.57,0,0,1,4.75-2.69c15.82-.2,31.64-.11,47.47-.13,3.05,0,5.4.94,5.45,4.36S78.8,50,75.84,50.05C68,50.12,60.19,50.07,52.36,50.07Z"/></g></g></svg>