<svg xmlns="http://www.w3.org/2000/svg" viewBox="0 0 145.67 121.5"><defs><style>.cls-1,.cls-2{fill:#3cb3dc;}.cls-1{stroke:#3cb3dc;stroke-miterlimit:10;}</style></defs><g id="Layer_2" data-name="Layer 2"><g id="Layer_1-2" data-name="Layer 1"><path class="cls-1" d="M84.07,23.22c-10.17-1.31-20.34-2.64-30.51-3.93-7.27-.92-14.56-1.66-21.8-2.74-6-.9-11.19,0-15.24,5.07-.71.88-2.46.92-3.73,1.35,0-1.46-.65-3.37,0-4.31,4.3-5.89,10.27-8.16,17.48-7.24q26,3.3,52,6.57a9.55,9.55,0,0,0,4.58-.58L51.38,8.16c-2.58-.67-5.19-1.22-7.71-2C38.94,4.6,34.92,5.6,31.12,8.73c-1,.8-2.82.56-4.26.8C27.26,8,27.18,6,28.14,5,32.85.42,38.64-.34,44.84,1.27q30.63,8,61.26,16.06c8.51,2.24,17,4.55,25.53,6.75,9,2.32,13.51,8.07,13.52,17.22q0,30.51,0,61c0,12.08-6.44,18.59-18.46,18.6-35.49,0-71-.24-106.48.09C8,121.11.16,113.9.54,101.47c.6-19.32.52-38.67,0-58-.37-12.86,7.9-20,20-19.69,21.13.62,42.3.17,63.46.17ZM73.21,28.91v0H19.74c-10.12,0-14.25,4-14.27,14.24q-.08,29.47.06,59c0,9.81,4.11,13.85,14.09,13.87q53.73.09,107.44,0,13,0,13.1-13.34.06-30.24,0-60.47c0-9.35-3.9-13.22-13.46-13.25C108.85,28.86,91,28.91,73.21,28.91Z"/><path class="cls-2" d="M55.52,71.72C62.93,64,61.83,54.1,53.2,50.33a12.11,12.11,0,1,0-8.28,22.72,45.54,45.54,0,0,0,7.41,1c11.14,1.1,22,10.79,24,21.61.2,1.09-.75,2.4-1.17,3.6-.87-.75-2.25-1.35-2.54-2.28C68.74,84.44,60.26,78.41,47.22,77.66A16.05,16.05,0,0,1,32.07,61.4,16.74,16.74,0,0,1,47.43,45.17,16,16,0,0,1,64.5,59.32c.35,3.55-1.1,7.42-2.35,10.93C61.08,73.23,58.66,74.14,55.52,71.72Z"/><path class="cls-2" d="M107.11,91.45c-5.14,0-10.29.13-15.43-.1-1.18,0-2.31-1.3-3.46-2,1.17-.87,2.32-2.48,3.51-2.51q15.67-.32,31.37,0c1.12,0,2.22,1.7,3.33,2.61-1.13.7-2.23,2-3.38,2-5.31.22-10.62.1-15.94.1Z"/><path class="cls-2" d="M101.85,58.13a97.21,97.21,0,0,1-10-.11c-1.33-.14-2.52-1.52-3.78-2.33,1.19-.85,2.36-2.39,3.58-2.44q10.22-.36,20.43,0c1.18,0,2.31,1.63,3.47,2.5-1.26.8-2.46,2.15-3.79,2.28A97,97,0,0,1,101.85,58.13Z"/><path class="cls-2" d="M101.61,70c3.64,0,7.29-.13,10.92.09,1,.06,2,1.17,3,1.8-.89,1-1.75,2.78-2.67,2.81Q102,75,91,74.69c-1,0-1.89-1.74-2.83-2.67,1-.68,1.94-1.86,3-1.94C94.64,69.84,98.13,70,101.61,70Z"/><path class="cls-2" d="M40.84,78.93c-8.44,3.32-14,9-16.43,17.69-.3,1-1.87,1.69-2.85,2.52-.31-1.27-1.12-2.65-.86-3.8,1.64-7.32,6-12.79,12.08-17C35.55,76.37,38.09,75.74,40.84,78.93Z"/></g></g></svg>