<svg xmlns="http://www.w3.org/2000/svg" viewBox="0 0 175.42 189.01"><defs><style>.cls-1{fill:#3cb3dc;}</style></defs><g id="Layer_2" data-name="Layer 2"><g id="Layer_1-2" data-name="Layer 1"><path class="cls-1" d="M87.61,0C94.36,5.93,100.82,11.37,107,17.12A13,13,0,0,0,117.15,21c7.28-.34,14.59-.17,21.89-.07,9.25.11,14.84,5.68,15,14.86.07,2.82.42,5.71-.06,8.45-1.87,10.7,2.09,18.53,11.19,24,8.19,4.94,10.44,11.92,10.19,21.49-.71,27.35-.25,54.73-.25,82.09,0,11.72-5.34,17.16-16.88,17.16H17C5.53,189,.07,183.64.07,172.4c0-30.35,0-60.7-.07-91.05,0-3.07.7-5.23,3.2-7.2,4.28-3.39,8-7.54,12.4-10.73s6.13-7.17,5.62-12.66a125.89,125.89,0,0,1-.08-15.42c.25-8.66,5.8-14.22,14.47-14.39,8-.15,15.93.19,23.88-.17A13.41,13.41,0,0,0,66.91,18C73.84,12.34,80.44,6.29,87.61,0Zm.08,27.74q-25.14,0-50.28,0c-6.88,0-9.47,2.49-9.49,9.18,0,17.26-.1,34.52.11,51.77a9.09,9.09,0,0,0,2.68,5.81C36.34,99.88,42.21,105,48.21,110a9.77,9.77,0,0,0,5.75,2q33.35.21,66.7,0a10.45,10.45,0,0,0,6.13-2.33c6-5,11.85-10.14,17.41-15.6a10.64,10.64,0,0,0,2.94-6.69c.24-16.59.14-33.18.12-49.78,0-7.44-2.42-9.88-9.79-9.89Q112.59,27.72,87.69,27.74ZM157.14,181.9c-1-1.13-1.38-1.65-1.85-2.05-14.6-12.52-29.15-25.1-43.88-37.46a11.4,11.4,0,0,0-6.62-2.43c-10.94-.25-21.89,0-32.83-.18a12.85,12.85,0,0,0-9.39,3.4c-14,12.19-28.15,24.21-42.24,36.31a24.83,24.83,0,0,0-2.06,2.41ZM7,83.75c0,31.07,0,60.72.08,90.37,0,1.91,1.15,3.81,1.94,6.24L63.16,133ZM112,133.05c17.84,15.57,35.09,30.61,52.35,45.64a11.33,11.33,0,0,0,1.59,1c2.48-3.6,3.75-84.55,1.49-95.23Zm-53.66-14c5.3,4.66,9.26,10.91,14.33,12a74.09,74.09,0,0,0,29,.61c5.25-1,9.39-7.8,14.73-12.6ZM74.54,20.47h26.19L87.58,9ZM10.49,76.93,20.8,85.85V68ZM154.39,86l10.33-9.11L154.39,68Z"/><path class="cls-1" d="M42.44,55.4v-6h90.22v6Z"/><path class="cls-1" d="M132.73,70.5v5.91H42.47V70.5Z"/><path class="cls-1" d="M132.72,91.5v5.9H42.47V91.5Z"/></g></g></svg>