<svg width="75" height="90" viewBox="0 0 75 90" fill="none" xmlns="http://www.w3.org/2000/svg">
<path d="M45.8133 88.5117L45.9882 88.2351L45.9994 88.5397C46.6465 88.5158 47.225 88.3585 47.6571 88.0593C48.1016 87.7516 48.388 87.2908 48.388 86.73V18.786C48.388 17.9149 47.7898 17.1859 46.9023 16.9361L3.94373 1.53633L3.92372 1.52916L3.90318 1.52371C2.68298 1.20009 1.457 2.09132 1.457 3.354V71.298C1.457 72.1687 2.05392 72.8974 2.94329 73.1451L45.8133 88.5117ZM1.10118 73.0375C0.727299 72.5561 0.517347 71.9683 0.501 71.3601V71.298V3.354C0.501 1.49516 2.28446 0.116681 4.20744 0.618901L47.1643 16.0177L47.1851 16.0252L47.2066 16.0308C47.8172 16.1903 48.3579 16.5472 48.7446 17.0458C49.1312 17.5443 49.3422 18.1564 49.345 18.7872C49.345 18.7875 49.345 18.7878 49.345 18.788L49.345 86.729C49.345 87.6018 48.9703 88.2754 48.358 88.7439C47.7337 89.2217 46.8412 89.499 45.819 89.499H45.734L45.6577 89.4723L45.6542 89.4711L2.68275 74.0643L2.66162 74.0568L2.63989 74.0511C2.02921 73.8922 1.48822 73.5359 1.10118 73.0375Z" fill="#006AEE" stroke="#3CB3DC"/>
<path d="M62.709 14.2986V81.796H48.502V18.641C48.502 17.7974 47.9663 17.045 47.1697 16.8136L15.5006 4.902H53.5993L62.709 14.2986ZM49.458 80.34V80.84H49.958H61.252H61.752V80.34V14.89V14.6874L61.611 14.542L53.341 6.01098L53.1937 5.859H52.982H23.507L23.3309 6.82697L47.4089 15.886L47.4264 15.8925L47.4443 15.8978C48.6324 16.2463 49.458 17.3626 49.458 18.641V80.34Z" fill="#3CB3DC" stroke="#3CB3DC"/>
<path d="M62.0459 14.5028L53.609 6.23689V5.946H53.109H16.9921L5.40476 1.78429L5.4174 1.78506L6.3794 1.84406L6.87952 1.87473L6.90913 1.37455C6.91831 1.21956 6.92259 1.12841 6.92578 1.02199L6.94078 0.521925L6.4407 0.507217L6.19534 0.5H70.722C72.4505 0.5 73.846 1.87871 73.846 3.572V31.1626L62.196 39.3158V14.86V14.6499L62.0459 14.5028ZM4.948 1.38877V1.62024L4.93408 1.61524L4.948 1.38877ZM4.97759 1.07257L4.96479 1.10811C4.96713 1.06111 4.96911 1.0141 4.97071 0.967069L4.98023 0.688556L4.74836 0.533975L4.69739 0.5H5.1838L5.07159 0.811574L4.97759 1.07257ZM10.0259 2.42653L16.9705 4.92264L17.0388 4.991H17.246H53.7039L63.152 14.2491V36.519V37.4792L63.9387 36.9287L72.6757 30.8147L72.889 30.6654V30.405V3.571C72.889 2.39486 71.91 1.456 70.722 1.456H10.195L10.0259 2.42653Z" fill="#3CB3DC" stroke="#3CB3DC"/>
<path d="M50.872 45.978C50.6126 45.978 50.3639 45.875 50.1804 45.6916C49.997 45.5081 49.894 45.2594 49.894 45C49.894 44.7406 49.997 44.4919 50.1804 44.3085C50.3639 44.125 50.6126 44.022 50.872 44.022H57.108C57.3674 44.022 57.6161 44.125 57.7995 44.3085C57.983 44.4919 58.086 44.7406 58.086 45C58.086 45.2594 57.983 45.5081 57.7995 45.6916C57.6161 45.875 57.3674 45.978 57.108 45.978H50.871H50.872Z" fill="#3CB3DC"/>
<path d="M50.872 56.984C50.6125 56.984 50.3636 56.8809 50.1801 56.6974C49.9966 56.5139 49.8935 56.265 49.8935 56.0055C49.8935 55.746 49.9966 55.4971 50.1801 55.3136C50.3636 55.1301 50.6125 55.027 50.872 55.027H57.108C57.3675 55.027 57.6164 55.1301 57.7999 55.3136C57.9834 55.4971 58.0865 55.746 58.0865 56.0055C58.0865 56.265 57.9834 56.5139 57.7999 56.6974C57.6164 56.8809 57.3675 56.984 57.108 56.984H50.871H50.872Z" fill="#44BDA2"/>
<path d="M50.872 66.889C50.6125 66.889 50.3636 66.7859 50.1801 66.6024C49.9966 66.4189 49.8935 66.17 49.8935 65.9105C49.8935 65.651 49.9966 65.4021 50.1801 65.2186C50.3636 65.0351 50.6125 64.932 50.872 64.932H57.108C57.3675 64.932 57.6164 65.0351 57.7999 65.2186C57.9834 65.4021 58.0865 65.651 58.0865 65.9105C58.0865 66.17 57.9834 66.4189 57.7999 66.6024C57.6164 66.7859 57.3675 66.889 57.108 66.889H50.871H50.872Z" fill="#7DDEB1"/>
<path d="M50.872 25.068C50.6125 25.068 50.3636 24.9649 50.1801 24.7814C49.9966 24.5979 49.8935 24.349 49.8935 24.0895C49.8935 23.83 49.9966 23.5811 50.1801 23.3976C50.3636 23.2141 50.6125 23.111 50.872 23.111H57.108C57.3675 23.111 57.6164 23.2141 57.7999 23.3976C57.9834 23.5811 58.0865 23.83 58.0865 24.0895C58.0865 24.349 57.9834 24.5979 57.7999 24.7814C57.6164 24.9649 57.3675 25.068 57.108 25.068H50.871H50.872Z" fill="#3CB3DC"/>
<path d="M50.872 34.973C50.6125 34.973 50.3636 34.8699 50.1801 34.6864C49.9966 34.5029 49.8935 34.254 49.8935 33.9945C49.8935 33.735 49.9966 33.4861 50.1801 33.3026C50.3636 33.1191 50.6125 33.016 50.872 33.016H57.108C57.3675 33.016 57.6164 33.1191 57.7999 33.3026C57.9834 33.4861 58.0865 33.735 58.0865 33.9945C58.0865 34.254 57.9834 34.5029 57.7999 34.6864C57.6164 34.8699 57.3675 34.973 57.108 34.973H50.871H50.872Z" fill="#44BDA2"/>
<path d="M52.909 13.206V13.706H53.409H60.839V14.663H51.952V5.88H52.909V13.206Z" fill="#5D6D81" stroke="#3CB3DC"/>
</svg>
