<svg xmlns="http://www.w3.org/2000/svg" viewBox="0 0 147.04 175.72"><defs><style>.cls-1{fill:#3cb3dc;}</style></defs><g id="Layer_2" data-name="Layer 2"><g id="Layer_1-2" data-name="Layer 1"><path class="cls-1" d="M147,175.72H13.75c-.17-3.3-.34-6.5-.54-10.27H0V0H133.47c.17,3.23.33,6.31.53,10.05h13ZM4.93,160H128.41V5.06H4.93Zm128.79,5.31H18.51l.27,5.21H142V15.66c-8.13-1.54-8.26-1.44-8.26,6.09q0,68.41,0,136.84Z"/><path class="cls-1" d="M120.82,66.68V71H13.59l-.45-4.31Z"/><path class="cls-1" d="M13.45,79.07V74.61H120.72v4.46Z"/><path class="cls-1" d="M13.19,58.46h107.5l.37,4.52H13.58Z"/><path class="cls-1" d="M13.26,87.09l.21-4.45H120.7v4.45Z"/><path class="cls-1" d="M120.59,38.57c1.2,3.47,0,4.63-3.36,4.62Q67,43.1,16.77,43.19c-3.28,0-4.14-1.3-3.14-4.62Z"/><path class="cls-1" d="M13.27,95.13l.22-4.45h56l.23,4.45Z"/><path class="cls-1" d="M10.76,19.84A11.29,11.29,0,0,1,22.21,8.63,11.48,11.48,0,0,1,33.53,20.06,11.71,11.71,0,0,1,22,31.37,11.52,11.52,0,0,1,10.76,19.84Zm4.93-.19c.26,3.94,2.33,6.22,6.1,6.66a6.34,6.34,0,0,0,6.69-6.41c-.27-3.76-2.41-6.18-6.3-6.24S16.26,16,15.69,19.65Z"/><path class="cls-1" d="M117.63,138.53c-1.16,1.11-2.28,3.15-3.49,3.19-7.39.3-14.81.15-22.61.15-.1-1.73-.18-3.08-.27-4.71h25Z"/><path class="cls-1" d="M91.4,145.15h25.26c.62,2.89.82,4.92-3.12,4.81-6.29-.18-12.59,0-18.89-.07C91.4,149.86,91.4,149.76,91.4,145.15Z"/><path class="cls-1" d="M38.56,137.25c.88,3,.55,4.76-3.18,4.68-7.08-.17-14.16-.05-21.69-.05l-.57-4.63Z"/><path class="cls-1" d="M102.4,22.17V17.82h14.27c.11,1.29.22,2.64.36,4.35Z"/><path class="cls-1" d="M91.2,17.77h6c.68,5,.68,5-5.69,4.32Z"/></g></g></svg>