<svg xmlns="http://www.w3.org/2000/svg" viewBox="0 0 113.49 154.57"><defs><style>.cls-1{fill:#3cb3dc;}</style></defs><g id="Layer_2" data-name="Layer 2"><g id="Layer_1-2" data-name="Layer 1"><path class="cls-1" d="M9.07,145.42V0h95.12V145.43c2.64,0,4.93-.13,7.21,0,3.11.2,1.79,2.71,1.92,4.29s.67,3.39-2,3.52c-7.73.37-15.56,1.88-23.15,1.06C71.07,152.51,54,152.75,37,153.4c-8,.31-16.1,1.29-24.18,1.09A50.13,50.13,0,0,1,1.45,153c-.89-.23-1.4-3.16-1.45-4.86a3.42,3.42,0,0,1,2.06-2.61C4.17,145.16,6.39,145.42,9.07,145.42ZM13.19,3V145.19c1.52.07,2.88.19,4.24.19,25.86,0,51.73,0,77.59.08,3.3,0,4.31-.79,4.3-4.21q-.18-67.09-.09-134.2c0-1.33-.15-2.67-.23-4Z"/><path class="cls-1" d="M27.12,49.07c0-10.08,0-20.15,0-30.23,0-4.56,1.39-6.08,6-6.1q23.8-.12,47.63,0c4.54,0,6.68,2.38,6.68,6.92q0,29.36,0,58.71c0,4.37-2.08,6.73-6.44,6.75q-24,.12-48,0c-4.6,0-5.89-1.51-5.91-6.17C27.1,69,27.12,59,27.12,49.07Zm57.82-.19V20.39c0-5.33-.87-6.26-6.18-6.27q-21.91-.06-43.81,0c-4.6,0-6.28,1.69-6.32,6.24-.05,5.21,0,10.42,0,15.63,0,13.9,0,27.8,0,41.7,0,4,1.56,6,5,6q23.3.09,46.59,0c3.38,0,4.67-1.55,4.67-4.94Q84.95,63.82,84.94,48.88Z"/><path class="cls-1" d="M84.54,97.53H28.79v-3H44.86q18.44,0,36.86,0C83.74,94.46,85.62,94.42,84.54,97.53Z"/><path class="cls-1" d="M28.68,109.92V107H84.45c.76,1.73.78,2.92-1.79,2.91C64.81,109.91,47,109.92,28.68,109.92Z"/><path class="cls-1" d="M28.69,134.32v-3H84.62l.22,3Z"/><path class="cls-1" d="M28.91,119.14H41.35c13.54,0,27.08,0,40.63.06,1,0,1.9.9,2.86,1.38-.93.52-1.84,1.48-2.77,1.48-17,.09-34,0-51,.1C28.84,122.17,28.06,121.52,28.91,119.14Z"/><path class="cls-1" d="M68.16,25.48c3.59,2.29,7.22,4.45,10.66,6.88a4.56,4.56,0,0,1,1.65,3.13c.18,4.26.07,8.54.07,13.11H33.3c0-2.63-.13-5.27.08-7.87A3.83,3.83,0,0,1,35,38.43c1.66-1.21,3.58-2.08,5.21-3.32,3.43-2.62,6.71-3.57,10.32-.22.48.45,2.14.1,3-.38C58.4,31.59,63.24,28.53,68.16,25.48Z"/><path class="cls-1" d="M80.5,67.44V80H33.57V67.44Z"/><path class="cls-1" d="M33,54c.77-.54,1.54-1.55,2.32-1.55q21.72-.15,43.44,0c.77,0,1.54,1,2.31,1.54l-.49,1H33.75Z"/><path class="cls-1" d="M81,58.57c-.83.45-1.65,1.29-2.47,1.3Q57,60,35.43,59.86c-.81,0-1.61-.92-2.41-1.41l.47-1H80.27Z"/><path class="cls-1" d="M80.24,65H58.05c-7.54,0-15.07,0-22.6-.06-.7,0-1.39-.71-2.09-1.09.69-.52,1.38-1.48,2.08-1.48q21.56-.13,43.11,0c.8,0,1.61.88,2.42,1.36Z"/><path class="cls-1" d="M46.29,23.34c-1.2,3.17-3.64,4.26-6.61,3.32-1.33-.42-3.17-2.13-3.13-3.2,0-1.22,1.72-3,3.05-3.43C42.6,19,44.94,20.41,46.29,23.34Z"/></g></g></svg>