<svg xmlns="http://www.w3.org/2000/svg" viewBox="0 0 140.23 160.48"><defs><style>.cls-1{fill:#3cb3dc;}</style></defs><g id="Layer_2" data-name="Layer 2"><g id="Layer_1-2" data-name="Layer 1"><path class="cls-1" d="M140.23,107.53v6a5.16,5.16,0,0,0-.21.77A30.78,30.78,0,0,1,132.26,132a23.54,23.54,0,0,1-10.54,7,62.79,62.79,0,0,1-7.11,1.3c0,1.4.08,2.91,0,4.4a27.9,27.9,0,0,1-.73,5.8c-1.35,4.57-4,8.15-8.8,9.52a16.13,16.13,0,0,1-4.34.44q-29.85,0-59.71,0c-.78,0-1.55,0-2.33-.06a10.69,10.69,0,0,1-7.4-3.63,16.19,16.19,0,0,1-4.21-11.89c.05-1.59,0-3.18,0-4.69-.22-.11-.3-.18-.38-.18h-1a22.94,22.94,0,0,1-10-2.15,27.47,27.47,0,0,1-9.62-8.12,29.25,29.25,0,0,1-5.34-12C-1.26,107.53.64,98.2,7.4,90a23.27,23.27,0,0,1,10.2-7.31,20.44,20.44,0,0,1,8.8-1.53A2.08,2.08,0,0,0,27,81V76.54c-2.18-.47-4.25-.87-6.3-1.38-5.13-1.27-9-4.36-12.34-8.36A30,30,0,0,1,1.93,52.42,33.48,33.48,0,0,1,5.55,30.59a2,2,0,0,1,2.5-1.15,2,2,0,0,1,1.4,2.36,5.67,5.67,0,0,1-.58,1.66,40.65,40.65,0,0,0-2.18,5.27C4.13,48.5,5.66,57.36,12.62,65A19.55,19.55,0,0,0,26.48,71.5a17.77,17.77,0,0,0,9.35-2.34,21.24,21.24,0,0,0,6.84-5.68,26,26,0,0,0,5.61-16.2c0-9.66-3.56-17.57-11.88-22.77a17,17,0,0,0-12.73-2.3,20.62,20.62,0,0,0-8.14,3.5,2,2,0,0,1-3-.4,2.74,2.74,0,0,1,.67-3.44,23.72,23.72,0,0,1,10.67-4.38c1-.12,2.07-.16,3.1-.23.12-1.74.11-3.39.36-5C28.36,5.49,33.6-.06,41.41,0c19.72.15,39.44.08,59.16,0a14.44,14.44,0,0,1,6.67,1.58,11.5,11.5,0,0,1,3.49,2.75,16.48,16.48,0,0,1,3.88,11.48c0,.48.06,1,.09,1.44l.25-.36c2.53.62,5.08,1.16,7.57,1.89a21.74,21.74,0,0,1,9.75,6.6,28.56,28.56,0,0,1,6.47,11.51c.65,2.22,1,4.52,1.49,6.78v6a2.16,2.16,0,0,0-.2.51,31.53,31.53,0,0,1-5.54,15,25.22,25.22,0,0,1-10,8.66,21.15,21.15,0,0,1-9.17,2.29,2.85,2.85,0,0,0-.63.14v4.55c1.48.3,2.83.61,4.2.83A22.44,22.44,0,0,1,131,88a28.11,28.11,0,0,1,7.53,12.1C139.24,102.53,139.65,105.06,140.23,107.53ZM48.54,14.18c-.22,0-.62,0-1,0-2.1,0-4.2,0-6.29,0a1.89,1.89,0,0,0-1.11.62c-.76.78-1.29,5.25-.76,6.16a1.7,1.7,0,0,0,.61.51,24.41,24.41,0,0,1,6.78,6.77,31.32,31.32,0,0,1,5.6,18.38c-.11,9.76-3.4,18.08-11.12,24.43-.72.6-2,.84-2,2.3.06,3.93,0,7.85.05,11.78a2,2,0,0,0,.67,1.34,27.34,27.34,0,0,1,7.24,8.87,32.26,32.26,0,0,1,3.42,19.88c-1.06,7.38-4,13.81-9.73,18.8-.66.58-1.5,1.4-1.56,2.16-.19,2.64-.1,5.29,0,7.94A2.5,2.5,0,0,0,42,146.67q28.83,0,57.65,0a2.53,2.53,0,0,0,2.77-2.66c0-2.19.08-4.39,0-6.57a2.92,2.92,0,0,0-1-1.73c-1.22-1.14-2.69-2-3.81-3.26A30.69,30.69,0,0,1,90.32,119a33.17,33.17,0,0,1-.18-15.72c.22-.95.82-1.95,2.06-1.78a2.27,2.27,0,0,1,1.88,2.17,2.82,2.82,0,0,1-.09,1c-1.6,8.54-.18,16.36,5.4,23.25a19.66,19.66,0,0,0,10.92,7.06c6.86,1.59,12.85-.3,18-5.13a23.78,23.78,0,0,0,6.16-9.48,27.43,27.43,0,0,0,.24-18.51c-2.25-6.7-6.42-11.92-13.08-14.52a18.53,18.53,0,0,0-15,.53c-3.82,1.77-6.53,4.62-9,7.86a1.82,1.82,0,0,1-2.7.47,2.76,2.76,0,0,1-.41-3.39,24.06,24.06,0,0,1,6.18-6.58,3.45,3.45,0,0,0,1.71-3.34c-.17-2.91-.08-5.84,0-8.76a2.13,2.13,0,0,0-1.16-2.33,10,10,0,0,1-2.41-1.95,31.22,31.22,0,0,1-8.64-15.13c-2.83-11.32.66-25.82,11.66-33.3a1.39,1.39,0,0,0,.51-1,32.8,32.8,0,0,0,0-3.84c-.08-1.15-.61-2.25-1.87-2.32-2.53-.13-5.08,0-7.6,0-.16.86-.28,1.58-.43,2.29a6.11,6.11,0,0,1-5.4,4.61c-10.86,0-21.73.05-32.59,0A4.92,4.92,0,0,1,50,18.21,40,40,0,0,1,48.54,14.18Zm87.6,31.1A26,26,0,0,0,129.65,29a20.7,20.7,0,0,0-10.88-6.64,16.8,16.8,0,0,0-9.38.43,21.3,21.3,0,0,0-9.59,6.3,25.26,25.26,0,0,0-6.38,16.16A26.09,26.09,0,0,0,100.5,65.1a19.69,19.69,0,0,0,13.9,6.39,17.92,17.92,0,0,0,9.22-2.3,21.27,21.27,0,0,0,6.85-5.67C134.3,58.64,136.15,53,136.14,45.28ZM4.05,111.48a26.24,26.24,0,0,0,5.88,16.18,19.87,19.87,0,0,0,11.12,7.23c6.89,1.59,13-.28,18.13-5.14A23,23,0,0,0,46,117.87c2-8.76.76-16.87-5-24.1a19.37,19.37,0,0,0-9.9-6.94A18.67,18.67,0,0,0,17.17,87.9a21.27,21.27,0,0,0-6.82,5.25C6.09,98.15,4.09,104,4.05,111.48Zm106.63-94a32.86,32.86,0,0,0-.52-5.22c-.85-3.36-2.7-6-6.28-7a11.38,11.38,0,0,0-3-.29q-30,0-60.09,0a9.27,9.27,0,0,0-2.18.12,8.59,8.59,0,0,0-3.06,1.09C31.72,9,30.7,13,31.25,17.56l4,1.23c0-.92,0-1.69,0-2.46.06-3.56,2.74-7.23,7.16-6.85a38.9,38.9,0,0,0,5.61,0c2.93-.17,4.67,1.92,4.94,4.51.2,1.87.62,2.22,2.54,2.23h30.8c1.89,0,2.27-.36,2.47-2.27a4.54,4.54,0,0,1,4.85-4.43c2,0,3.94.11,5.89,0a6.46,6.46,0,0,1,6.86,5.79c.16,1.16.18,2.33.27,3.51Zm-79.47,122c0,2.6-.18,5.16.05,7.7a9.81,9.81,0,0,0,3.88,7.06,8.26,8.26,0,0,0,5.45,1.64H101q.61,0,1.23,0c3.62-.21,5.86-2.32,7.33-5.43,1.62-3.43.85-7.07,1-10.66l-4.08-1c0,1.79,0,3.47,0,5.15a7.08,7.08,0,0,1-7.45,7.48c-18.85-.15-37.7-.06-56.55-.06a15,15,0,0,1-1.64-.05,5.36,5.36,0,0,1-4.54-3.19,16.33,16.33,0,0,1-1.08-4.7,52.38,52.38,0,0,1,0-5.31Zm3.88-56.31V74.64a19.53,19.53,0,0,0-2.33.62c-.57.24-1.49.64-1.52,1-.15,1.85,0,3.72,0,5.59l3.56,1.26A1.52,1.52,0,0,0,35.09,83.16Zm71.47-8.61v8.11l4-1c0-1.74,0-3.46,0-5.18a.92.92,0,0,0-.44-.7C109,75.36,107.84,75,106.56,74.55Z"/><path class="cls-1" d="M41.12,46.82c0,3,0,6,0,9,0,4.51-2.78,7.51-7.59,7.49-4.29,0-8.58,0-12.87,0a13.91,13.91,0,0,1-3.83-.65c-2.5-.78-3.6-2.81-4-5.22a25.26,25.26,0,0,1-.17-4.09c0-5.07,0-10.13,0-15.2,0-3.2,1-5.82,3.85-7.42a5.76,5.76,0,0,1,2.63-.51c5.06,0,10.14.15,15.19-.07,3.83-.17,6.77,3.39,6.78,6.67,0,.13,0,.27,0,.41v9.58Zm-4.06-.14c0-3,0-5.93,0-8.89,0-2.12-.59-2.68-2.69-2.69H19.45c-2.06,0-2.71.64-2.72,2.7q0,8.89,0,17.78c0,2.2.7,2.86,2.87,2.87H34c2.56,0,3.09-.53,3.1-3.15C37.07,52.42,37.06,49.55,37.06,46.68Z"/><path class="cls-1" d="M70.79,101.53a15.59,15.59,0,0,1-10.92-4.08c-.25-.23-.94-.14-1.35,0-1,.37-1.94.93-3,1.28-2.85,1-5.1-1-4.4-4,.51-2.12,1.27-4.17,1.82-6.28a4.82,4.82,0,0,0,.11-2.23c-1.54-7-.59-13.56,3.61-19.38,4.89-6.8,12-9.4,20.4-6.44,3.66,1.29,6.33,4,8.46,7.26a22.36,22.36,0,0,1,3.67,12.93A22,22,0,0,1,81.9,97.28,15.61,15.61,0,0,1,70.79,101.53Zm-15-8c1.07-.36,1.92-.69,2.79-.93a4,4,0,0,1,3.45.81,19.36,19.36,0,0,0,4.68,2.83A12.11,12.11,0,0,0,77,95.32a15,15,0,0,0,5.58-5.41,18.14,18.14,0,0,0,2-14.34c-1.24-4.8-3.94-8.78-8.52-10.64-6.62-2.68-11.78-.68-15.71,4.21A17.5,17.5,0,0,0,57.09,85,6.91,6.91,0,0,1,57,89.29C56.53,90.63,56.22,92.05,55.8,93.53Z"/><path class="cls-1" d="M107,110.94c0-2.87,0-5.75,0-8.62,0-1.43,0-2.87,1.51-3.69s2.9.07,4.14.88,2.45,1.81,3.71,2.65c2.59,1.72,5.25,3.33,7.8,5.11a7.36,7.36,0,0,1,2.47,2.56c.77,1.6-.15,3.45-1.79,4.52q-5.62,3.63-11.22,7.29c-.71.47-1.35,1-2.09,1.47-2.34,1.32-4.42.14-4.5-2.6s0-5.29,0-7.93Zm4.12,7,10.45-7-10.45-7Z"/><path class="cls-1" d="M110.92,48.31c-1.11,0-2.06,0-3,0A2.06,2.06,0,0,1,105.66,46a2,2,0,0,1,2.26-2.29c.91,0,1.83,0,2.74,0,0,0,.07-.05.26-.19,0-1.88,0-3.87,0-5.86a7.65,7.65,0,0,1,3-6.83,5.84,5.84,0,0,1,2.9-1,42.66,42.66,0,0,1,4.93-.05c1.42,0,2.11.81,2.16,2.28a2,2,0,0,1-2.09,2.33c-1.41.06-2.83,0-4.24,0a2.27,2.27,0,0,0-2.5,2.4c0,2.23,0,4.47,0,6.93,1,0,2,0,3,0a2,2,0,0,1,2.25,2.17,2.07,2.07,0,0,1-2.13,2.44c-1,.06-2,0-3.12,0V62.39c0,.27,0,.54,0,.82a2.46,2.46,0,0,1-2.06,2.46,2.39,2.39,0,0,1-2-2.5c0-3.15,0-6.3,0-9.45Z"/><path class="cls-1" d="M14.37,116.67a43.09,43.09,0,0,1-3-5.53,16.56,16.56,0,0,1-.06-11.26,3.26,3.26,0,0,1,2-1.61c1.22-.4,2.18.37,2.93,1.32A8.52,8.52,0,0,0,21.71,103c.35-1,.64-2,1.05-2.88A6.82,6.82,0,0,1,32.69,97c.37.23.61.8,1,.87a3.08,3.08,0,0,0,1.93-.09c2.21-1.19,4.27-.33,4.79,2.17A8.68,8.68,0,0,1,39,106.37c-1.45,2.27-1.81,4.83-2.71,7.23a17.33,17.33,0,0,1-21.48,11.11c-3-.84-4.23-4.77-2.66-6.53A10.25,10.25,0,0,1,14.37,116.67Zm21.62-14c-.49,0-.89.13-1.29.13-1.35,0-2.64.1-3.64-1.27a2.73,2.73,0,0,0-4.39.49,6.46,6.46,0,0,0-.77,3c.09,3-2.27,3.77-4.64,2.82s-4.51-1.88-6.71-2.8a9.46,9.46,0,0,0,5,9.62,2.6,2.6,0,0,1,1.66,2.27,2.54,2.54,0,0,1-1.53,2.51,16.91,16.91,0,0,0-1.79,1.22c3.13.62,5.72-.27,8.26-1.37a11.51,11.51,0,0,0,5.48-5.43c1.78-3.26,1.72-7.26,4.08-10.3A3.19,3.19,0,0,0,36,102.62Z"/><path class="cls-1" d="M72.85,10.53a2.33,2.33,0,0,1-2,2.46,2.48,2.48,0,0,1-2-2.48c0-1.07,1.17-2.41,2-2.4S72.84,9.45,72.85,10.53Z"/><path class="cls-1" d="M20.81,47.1c0-4.87,3.32-7.93,7.31-7.29,2.18.34,4.61,3.21,4.83,6,.3,3.82-1.4,6.37-4,7.53-3.5,1.57-6.78-1-7.87-4.51A11.63,11.63,0,0,1,20.81,47.1Zm4.09-.37A2.46,2.46,0,0,0,27,49.17a2.56,2.56,0,0,0,2-2.38,2.41,2.41,0,0,0-2-2.48A2.28,2.28,0,0,0,24.9,46.73Z"/><path class="cls-1" d="M63.79,77.94a50.12,50.12,0,0,1,1.65-4.84,2.23,2.23,0,0,1,1.81-.84,1.94,1.94,0,0,1,1.45,1.11,4.6,4.6,0,0,1-.06,2.6c-.92,2.57-.68,3.46,1.63,5,.52.34,1,.82,1.48,1.14,1.26.77,2.13.55,3-.68.23-.34.5-.65.74-1,.61-.84,1.29-1.61,2.46-1.07a2.63,2.63,0,0,1,1.11,3.21c-1.89,4.23-6.46,6.36-10.29,2.8-.92-.85-2.11-1.42-2.94-2.33A7.88,7.88,0,0,1,63.79,77.94Z"/></g></g></svg>