<svg xmlns="http://www.w3.org/2000/svg" viewBox="0 0 117.93 121.15"><defs><style>.cls-1{fill:#3cb3dc;}</style></defs><g id="Layer_2" data-name="Layer 2"><g id="Layer_1-2" data-name="Layer 1"><path class="cls-1" d="M59.16,0c6.52,1.39,13.47,1.77,19.47,4.35,20.94,9,34.91,24.11,38.54,47.39.14.86.25,1.72.38,2.57,1.14,8.08,0,14.88-6.68,21C98.69,86.66,87.41,98.94,75.74,110.8a97.41,97.41,0,0,1-8.27,8.12,11.12,11.12,0,0,1-5.95,2.13c-23.71,1.54-49.76-15.48-57.64-38.73C-3.26,61.26-.72,41.46,13,23.51c.52-.68,1.1-1.33,1.67-2,1.18-1.37,2.48-2.8,4.3-1.11,1.6,1.49.61,2.91-.56,4.21a35.47,35.47,0,0,0-2.46,3C4.89,43.08,2.3,59.79,7.61,78.08c5,17.08,22.29,35.85,48.38,37.66,7.42.52,9.69-1.45,10.46-8.92a105.58,105.58,0,0,1,1.91-13.77c2.5-10.58,8.86-17.84,19.56-20.74C92.7,71,97.58,70.06,102.43,69c10-2.16,11.38-4,10.24-14.15-2.6-23.11-18.37-41.29-40.91-47a52.21,52.21,0,0,0-35.14,3.27c-.69.31-1.38.91-2.06.89a21.22,21.22,0,0,1-3.66-.68c.53-1.22.71-3,1.64-3.57,8-5.12,17-6.95,26.44-6.94ZM71.23,106.17l34.16-31.41-1-1.45C98.93,74.67,93.34,75.68,88,77.47,80,80.16,74.92,86,73,94.27,72,98.65,71.67,103.17,71.23,106.17Z"/><path class="cls-1" d="M9.89,64.09C9.84,32,33.55,9.55,62.56,11.31c22.56,1.37,42,19.55,44.87,42a32.26,32.26,0,0,1,.52,6.76c-.1,1.14-1.27,2.86-2.25,3.09-2,.48-2.36-1.28-2.42-2.93a45.36,45.36,0,0,0-5.72-21.38C88.8,23.74,75.43,15.81,58,16.2S27.15,25.13,19.38,40.91a43.48,43.48,0,0,0-1.15,37.34C25.55,95.71,39,104.41,57.51,105.92c.75.06,1.73-.12,2.2.28.71.6,1.68,2,1.44,2.39a4.16,4.16,0,0,1-2.69,2,43.17,43.17,0,0,1-19.77-4.33C19.7,97.23,10.9,81.61,9.89,64.09Z"/><path class="cls-1" d="M59.67,53c2.66-1.3,4.91-2.32,7.09-3.49,1.8-1,3.19-.82,4.53.83,3.69,4.53,7.5,9,11.15,13.52.58.74,1.1,2.21.75,2.85a3.79,3.79,0,0,1-2.79,1.65q-21.42.15-42.84,0c-2.86,0-3.73-1.69-2.41-4.4C38,58.16,40.93,52.41,43.78,46.6c1-2,1.76-4.17,2.79-6.18,1.41-2.71,3.42-2.84,5.11-.25C54.38,44.31,56.92,48.55,59.67,53Zm8.5,1.23c-2.43,1.2-4.61,2.15-6.66,3.34C59,59,57.42,58.45,56,56c-1.94-3.24-4.21-6.3-6.54-9.74-3,6-5.65,11.39-8.41,17H75.63Z"/><path class="cls-1" d="M59.13,33.33a9.52,9.52,0,0,1,9.52-9.73,9.86,9.86,0,0,1,10,9.73c0,5-5.33,10.57-10,10.46S59.14,38.5,59.13,33.33Zm9.83,5a4.85,4.85,0,0,0,4.68-5.12,5,5,0,0,0-5-4.84,5.12,5.12,0,0,0-4.75,5.16A5,5,0,0,0,69,38.28Z"/><path class="cls-1" d="M49.58,73.36c5.83,0,11.67,0,17.51,0,1.78,0,4.07-.34,4,2.46-.09,2.37-2,2.4-3.85,2.39H30.9c-1.84,0-3.7-.15-3.67-2.55,0-2.24,1.85-2.32,3.54-2.32Z"/><path class="cls-1" d="M51.51,88.63c-3,0-6.07.19-9.06-.11-1-.1-2-1.4-3-2.15.92-.8,1.81-2.24,2.75-2.28Q51.64,83.73,61,84c.95,0,1.87,1.51,2.81,2.32-1,.78-1.91,2.12-3,2.22C57.79,88.82,54.64,88.63,51.51,88.63Z"/><path class="cls-1" d="M24.66,19c-1.14-1.73-2.27-2.69-2.23-3.61,0-.77,1.54-2.18,2.16-2.06a3.51,3.51,0,0,1,2.23,2.3C27,16.32,25.8,17.3,24.66,19Z"/></g></g></svg>